<?xml version="1.0" encoding="UTF-8" standalone="no"?>
<svg
   xmlns:dc="http://purl.org/dc/elements/1.1/"
   xmlns:cc="http://creativecommons.org/ns#"
   xmlns:rdf="http://www.w3.org/1999/02/22-rdf-syntax-ns#"
   xmlns:svg="http://www.w3.org/2000/svg"
   xmlns="http://www.w3.org/2000/svg"
   width="64.67926mm"
   height="64.67926mm"
   viewBox="0 0 64.67926 64.67926"
   version="1.1"
   id="svg8">
  <defs
     id="defs2">
    <clipPath
       clipPathUnits="userSpaceOnUse"
       id="clipPath5287">
      <rect
         style="opacity:1;fill:#060606;fill-opacity:1;fill-rule:nonzero;stroke:#ffffff;stroke-width:1.75999999;stroke-linecap:round;stroke-linejoin:bevel;stroke-miterlimit:4;stroke-dasharray:none;stroke-dashoffset:6.84925938;stroke-opacity:1;paint-order:normal"
         id="rect5289"
         width="64.255951"
         height="64.255951"
         x="41.388393"
         y="106.76926" />
    </clipPath>
  </defs>
  <metadata
     id="metadata5">
    <rdf:RDF>
      <cc:Work
         rdf:about="">
        <dc:format>image/svg+xml</dc:format>
        <dc:type
           rdf:resource="http://purl.org/dc/dcmitype/StillImage" />
        <dc:title></dc:title>
      </cc:Work>
    </rdf:RDF>
  </metadata>
  <g
     style="opacity:1;fill:#ffffff;fill-opacity:1;stroke:none"
     id="layer1"
     transform="translate(-33.139063,-88.830238)">
    <g
       style="fill:#ffffff;fill-opacity:1;stroke:none"
       id="g5283"
       clip-path="none"
       transform="matrix(0.93296176,0,0,1.012677,2.7727491,-2.1363437)">
      <path
         style="opacity:1;fill:#ffffff;fill-opacity:1;fill-rule:nonzero;stroke:none;stroke-width:2.13888335;stroke-linecap:round;stroke-linejoin:bevel;stroke-miterlimit:4;stroke-dasharray:none;stroke-dashoffset:6.84925938;stroke-opacity:1;paint-order:normal"
         d="M 32.548294,89.827834 V 153.69742 H 101.8751 V 89.827834 Z m 26.669012,6.525146 c 2.014064,0 3.568828,0.62077 4.664918,1.861558 1.096089,1.234642 1.644519,2.994072 1.644519,5.279002 0,2.27882 -0.54843,4.03872 -1.644519,5.27952 -1.09609,1.23465 -2.650854,1.85186 -4.664918,1.85186 -2.020915,0 -3.579352,-0.61721 -4.675441,-1.85186 -1.09609,-1.24075 -1.644517,-3.00065 -1.644517,-5.27952 0,-2.28493 0.548427,-4.04436 1.644517,-5.279002 1.096089,-1.240788 2.654526,-1.861558 4.675441,-1.861558 z m -16.020349,0.248514 h 3.760958 v 11.305596 h 3.493979 v 2.45094 H 39.724023 v -2.45094 h 3.493982 V 99.0157 l -3.586482,0.663386 v -2.414209 z m 29.265679,0 h 3.760958 v 11.305596 h 3.493979 v 2.45094 H 68.989705 v -2.45094 h 3.493426 V 99.0157 l -3.585926,0.663386 v -2.414209 z m 14.632841,0 h 3.760958 v 11.305596 h 3.493979 v 2.45094 H 83.622543 v -2.45094 h 3.493426 V 99.0157 l -3.585926,0.663386 v -2.414209 z m -27.878171,2.174879 c -0.849466,0 -1.455917,0.352985 -1.818996,1.059373 -0.363081,0.700254 -0.544479,1.910344 -0.544479,3.630244 0,1.73832 0.181398,2.96363 0.544479,3.67616 0.363079,0.71252 0.96953,1.06907 1.818996,1.06907 0.842621,0 1.445393,-0.35655 1.808474,-1.06907 0.363079,-0.71253 0.54448,-1.93784 0.54448,-3.67616 0,-1.7199 -0.181401,-2.92999 -0.54448,-3.630244 -0.356229,-0.706388 -0.959005,-1.059373 -1.808474,-1.059373 z m 29.265682,15.849767 c 2.014064,0 3.568825,0.62026 4.664915,1.86105 1.096092,1.23464 1.644519,2.9945 1.644519,5.27952 0,2.27887 -0.548427,4.03872 -1.644519,5.27951 -1.09609,1.23466 -2.650851,1.85186 -4.664915,1.85186 -2.020915,0 -3.579352,-0.6172 -4.675442,-1.85186 -1.096089,-1.24079 -1.644519,-3.00064 -1.644519,-5.27951 0,-2.28502 0.54843,-4.04488 1.644519,-5.27952 1.09609,-1.24079 2.654527,-1.86105 4.675442,-1.86105 z m -45.286031,0.24903 h 3.760958 v 11.30508 h 3.493979 v 2.45095 H 39.724023 v -2.45095 h 3.493982 v -8.89138 l -3.586482,0.66338 v -2.4137 z m 14.632838,0 h 3.760958 v 11.30508 h 3.493982 v 2.45095 H 54.356864 v -2.45095 h 3.493426 v -8.89138 l -3.585926,0.66338 v -2.4137 z m 14.632841,0 h 3.760958 v 11.30508 h 3.493979 v 2.45095 H 68.989705 v -2.45095 h 3.493426 v -8.89138 l -3.585926,0.66338 v -2.4137 z m 16.020352,2.17437 c -0.849472,0 -1.455917,0.35298 -1.818998,1.05937 -0.363079,0.70024 -0.54448,1.91033 -0.54448,3.63024 0,1.73833 0.181401,2.96415 0.54448,3.67668 0.363081,0.71252 0.969526,1.06856 1.818998,1.06856 0.842615,0 1.445393,-0.35604 1.808472,-1.06856 0.363081,-0.71253 0.544479,-1.93835 0.544479,-3.67668 0,-1.71991 -0.181398,-2.93 -0.544479,-3.63024 -0.35623,-0.70639 -0.959003,-1.05937 -1.808472,-1.05937 z m -29.265682,15.84977 c 2.014064,0 3.568828,0.62077 4.664918,1.86156 1.096089,1.23464 1.644519,2.99451 1.644519,5.27951 0,2.27887 -0.54843,4.03873 -1.644519,5.27952 -1.09609,1.23464 -2.650854,1.85186 -4.664918,1.85186 -2.020915,0 -3.579352,-0.61722 -4.675441,-1.85186 -1.09609,-1.24079 -1.644517,-3.00065 -1.644517,-5.27952 0,-2.285 0.548427,-4.04487 1.644517,-5.27951 1.096089,-1.24079 2.654526,-1.86156 4.675441,-1.86156 z m 29.265682,0 c 2.014064,0 3.568825,0.62077 4.664915,1.86156 1.096092,1.23464 1.644519,2.99451 1.644519,5.27951 0,2.27887 -0.548427,4.03873 -1.644519,5.27952 -1.09609,1.23464 -2.650851,1.85186 -4.664915,1.85186 -2.020915,0 -3.579352,-0.61722 -4.675442,-1.85186 -1.096089,-1.24079 -1.644519,-3.00065 -1.644519,-5.27952 0,-2.285 0.54843,-4.04487 1.644519,-5.27951 1.09609,-1.24079 2.654527,-1.86156 4.675442,-1.86156 z m -45.286031,0.24902 h 3.760958 v 11.30509 h 3.493979 v 2.45094 H 39.724023 v -2.45094 h 3.493982 v -8.89088 l -3.586482,0.66339 v -2.41421 z m 29.265679,0 h 3.760958 v 11.30509 h 3.493979 v 2.45094 H 68.989705 v -2.45094 h 3.493426 v -8.89088 l -3.585926,0.66339 v -2.41421 z m -13.24533,2.17437 c -0.849466,0 -1.455917,0.3535 -1.818996,1.05988 -0.363078,0.70024 -0.544479,1.91035 -0.544479,3.63025 0,1.73833 0.181398,2.96363 0.544479,3.67616 0.363079,0.71253 0.96953,1.06856 1.818996,1.06856 0.842621,0 1.445393,-0.35603 1.808474,-1.06856 0.363079,-0.71253 0.54448,-1.93783 0.54448,-3.67616 0,-1.7199 -0.181401,-2.93001 -0.54448,-3.63025 -0.356229,-0.70638 -0.959005,-1.05988 -1.808474,-1.05988 z m 29.265682,0 c -0.849472,0 -1.455917,0.3535 -1.818998,1.05988 -0.363079,0.70024 -0.54448,1.91035 -0.54448,3.63025 0,1.73833 0.181401,2.96363 0.54448,3.67616 0.363081,0.71253 0.969526,1.06856 1.818998,1.06856 0.842615,0 1.445393,-0.35603 1.808472,-1.06856 0.363081,-0.71253 0.544479,-1.93783 0.544479,-3.67616 0,-1.7199 -0.181398,-2.93001 -0.544479,-3.63025 -0.35623,-0.70638 -0.959003,-1.05988 -1.808472,-1.05988 z"
         id="rect5336" />
      <g
         aria-label="10111010"
         style="font-style:normal;font-weight:normal;font-size:11.55072021px;line-height:1.25;font-family:sans-serif;letter-spacing:0px;word-spacing:0px;fill:#ffffff;fill-opacity:1;stroke:none;stroke-width:0.28876799"
         id="text5191" />
    </g>
  </g>
</svg>
